<svg width="90" height="38" viewBox="0 0 90 38" fill="none" xmlns="http://www.w3.org/2000/svg">
<path d="M49.3252 14.0469H50.6445V21.0947C50.6445 22.0472 50.3574 22.7923 49.7832 23.3301C49.2135 23.8678 48.4525 24.1367 47.5 24.1367C46.5111 24.1367 45.7409 23.8838 45.1895 23.3779C44.638 22.8721 44.3623 22.1634 44.3623 21.252H45.6748C45.6748 21.8216 45.8298 22.266 46.1396 22.585C46.4541 22.904 46.9076 23.0635 47.5 23.0635C48.0423 23.0635 48.4798 22.8926 48.8125 22.5508C49.1497 22.209 49.3206 21.7305 49.3252 21.1152V14.0469ZM52.3467 20.2334C52.3467 19.5088 52.488 18.8571 52.7705 18.2783C53.0576 17.6995 53.4541 17.2529 53.96 16.9385C54.4704 16.624 55.0514 16.4668 55.7031 16.4668C56.7103 16.4668 57.5238 16.8154 58.1436 17.5127C58.7679 18.21 59.0801 19.1374 59.0801 20.2949V20.3838C59.0801 21.1038 58.9411 21.751 58.6631 22.3252C58.3896 22.8949 57.9954 23.3392 57.4805 23.6582C56.9701 23.9772 56.3822 24.1367 55.7168 24.1367C54.7142 24.1367 53.9007 23.7881 53.2764 23.0908C52.6566 22.3936 52.3467 21.4707 52.3467 20.3223V20.2334ZM53.6182 20.3838C53.6182 21.2041 53.8073 21.8626 54.1855 22.3594C54.5684 22.8561 55.0788 23.1045 55.7168 23.1045C56.3594 23.1045 56.8698 22.8538 57.248 22.3525C57.6263 21.8467 57.8154 21.1403 57.8154 20.2334C57.8154 19.4222 57.6217 18.766 57.2344 18.2646C56.8516 17.7588 56.3411 17.5059 55.7031 17.5059C55.0788 17.5059 54.5752 17.7542 54.1924 18.251C53.8096 18.7477 53.6182 19.4587 53.6182 20.3838ZM62.04 24H60.7754V16.6035H62.04V24ZM60.6729 14.6416C60.6729 14.4365 60.7344 14.2633 60.8574 14.1221C60.985 13.9808 61.1719 13.9102 61.418 13.9102C61.6641 13.9102 61.8509 13.9808 61.9785 14.1221C62.1061 14.2633 62.1699 14.4365 62.1699 14.6416C62.1699 14.8467 62.1061 15.0176 61.9785 15.1543C61.8509 15.291 61.6641 15.3594 61.418 15.3594C61.1719 15.3594 60.985 15.291 60.8574 15.1543C60.7344 15.0176 60.6729 14.8467 60.6729 14.6416ZM65.2666 16.6035L65.3076 17.5332C65.8727 16.8223 66.611 16.4668 67.5225 16.4668C69.0856 16.4668 69.874 17.3486 69.8877 19.1123V24H68.623V19.1055C68.6185 18.5723 68.4954 18.1781 68.2539 17.9229C68.0169 17.6676 67.6455 17.54 67.1396 17.54C66.7295 17.54 66.3695 17.6494 66.0596 17.8682C65.7497 18.0869 65.5081 18.374 65.335 18.7295V24H64.0703V16.6035H65.2666ZM79.834 23.2686C79.3418 23.8473 78.6195 24.1367 77.667 24.1367C76.8786 24.1367 76.277 23.9089 75.8623 23.4531C75.4521 22.9928 75.2448 22.3138 75.2402 21.416V16.6035H76.5049V21.3818C76.5049 22.5029 76.9606 23.0635 77.8721 23.0635C78.8382 23.0635 79.4808 22.7035 79.7998 21.9834V16.6035H81.0645V24H79.8613L79.834 23.2686ZM87.2988 22.0381C87.2988 21.6963 87.1689 21.432 86.9092 21.2451C86.654 21.0537 86.2051 20.8896 85.5625 20.7529C84.9245 20.6162 84.4163 20.4521 84.0381 20.2607C83.6644 20.0693 83.3864 19.8415 83.2041 19.5771C83.0264 19.3128 82.9375 18.9984 82.9375 18.6338C82.9375 18.0277 83.1927 17.515 83.7031 17.0957C84.2181 16.6764 84.8743 16.4668 85.6719 16.4668C86.5104 16.4668 87.1895 16.6833 87.709 17.1162C88.2331 17.5492 88.4951 18.1029 88.4951 18.7773H87.2236C87.2236 18.431 87.0755 18.1325 86.7793 17.8818C86.4876 17.6312 86.1185 17.5059 85.6719 17.5059C85.2116 17.5059 84.8516 17.6061 84.5918 17.8066C84.332 18.0072 84.2021 18.2692 84.2021 18.5928C84.2021 18.8981 84.3229 19.1283 84.5645 19.2832C84.806 19.4382 85.2412 19.5863 85.8701 19.7275C86.5036 19.8688 87.0163 20.0374 87.4082 20.2334C87.8001 20.4294 88.0895 20.6663 88.2764 20.9443C88.4678 21.2178 88.5635 21.5527 88.5635 21.9492C88.5635 22.61 88.2992 23.141 87.7705 23.542C87.2419 23.9385 86.556 24.1367 85.7129 24.1367C85.1204 24.1367 84.5964 24.0319 84.1406 23.8223C83.6849 23.6126 83.3271 23.321 83.0674 22.9473C82.8122 22.569 82.6846 22.1611 82.6846 21.7236H83.9492C83.972 22.1475 84.1406 22.4847 84.4551 22.7354C84.7741 22.9814 85.1934 23.1045 85.7129 23.1045C86.1914 23.1045 86.5742 23.0088 86.8613 22.8174C87.153 22.6214 87.2988 22.3617 87.2988 22.0381Z" fill="#241400"/>
<path fill-rule="evenodd" clip-rule="evenodd" d="M35.7405 26.2448C35.7405 29.7282 30.9635 30.1309 27.3713 30.1309L27.1142 30.1306C24.8256 30.1251 19 29.9806 19 26.2237C19 22.8114 23.585 22.3554 27.1499 22.3382L27.6284 22.3379C29.9169 22.3434 35.7405 22.4879 35.7405 26.2448ZM27.3713 23.9229C22.8681 23.9229 20.5853 24.6965 20.5853 26.2237C20.5853 27.7646 22.8681 28.5456 27.3713 28.5456C31.8735 28.5456 34.1552 27.772 34.1552 26.2448C34.1552 24.7039 31.8735 23.9229 27.3713 23.9229ZM27.3713 9.13086C30.4657 9.13086 32.9821 11.6483 32.9821 14.7427C32.9821 17.8372 30.4657 20.3535 27.3713 20.3535H27.3375C24.2494 20.344 21.7478 17.8256 21.7583 14.7396C21.7583 11.6483 24.2758 9.13086 27.3713 9.13086ZM27.3713 10.64C25.1086 10.64 23.2675 12.48 23.2675 14.7427C23.2602 16.998 25.0874 18.837 27.3406 18.8454L27.3713 19.6V18.8454C29.633 18.8454 31.4729 17.0044 31.4729 14.7427C31.4729 12.48 29.633 10.64 27.3713 10.64Z" fill="black"/>
</svg>
